<?xml version="1.0" encoding="UTF-8" standalone="no"?>
<!DOCTYPE svg PUBLIC "-//W3C//DTD SVG 1.1//EN"
 "http://www.w3.org/Graphics/SVG/1.1/DTD/svg11.dtd">
<!-- Generated by graphviz version 5.0.0 (20220707.1540)
 -->
<!-- Title: UmlClassDiagram Pages: 1 -->
<svg width="1367pt" height="1130pt"
 viewBox="0.00 0.00 1366.62 1130.20" xmlns="http://www.w3.org/2000/svg" xmlns:xlink="http://www.w3.org/1999/xlink">
<g id="graph0" class="graph" transform="scale(1 1) rotate(0) translate(4 1126.2)">
<title>UmlClassDiagram</title>
<polygon fill="white" stroke="transparent" points="-4,4 -4,-1126.2 1362.62,-1126.2 1362.62,4 -4,4"/>
<!-- 0 -->
<g id="node1" class="node">
<title>0</title>
<polygon fill="#f2f2f2" stroke="black" points="0,-0.5 0,-679.7 1358.62,-679.7 1358.62,-0.5 0,-0.5"/>
<text text-anchor="middle" x="679.31" y="-663.1" font-family="Times,serif" font-size="14.00">BalanceGame</text>
<text text-anchor="middle" x="679.31" y="-646.3" font-family="Times,serif" font-size="14.00">contractsBalanceGame.sol</text>
<polyline fill="none" stroke="black" points="0,-638.1 1358.62,-638.1 "/>
<text text-anchor="start" x="8" y="-621.5" font-family="Times,serif" font-size="14.00">Private:</text>
<text text-anchor="start" x="8" y="-604.7" font-family="Times,serif" font-size="14.00"> &#160;&#160;findGameById: mapping(uint256=&gt;Game)</text>
<text text-anchor="start" x="8" y="-587.9" font-family="Times,serif" font-size="14.00"> &#160;&#160;vrfRequested: mapping(uint256=&gt;bool)</text>
<text text-anchor="start" x="8" y="-571.1" font-family="Times,serif" font-size="14.00">Public:</text>
<text text-anchor="start" x="8" y="-554.3" font-family="Times,serif" font-size="14.00"> &#160;&#160;COST: uint256</text>
<text text-anchor="start" x="8" y="-537.5" font-family="Times,serif" font-size="14.00"> &#160;&#160;vrfCoordinator: address</text>
<text text-anchor="start" x="8" y="-520.7" font-family="Times,serif" font-size="14.00"> &#160;&#160;gameIndex: uint256</text>
<text text-anchor="start" x="8" y="-503.9" font-family="Times,serif" font-size="14.00"> &#160;&#160;s_subscriptionId: uint256</text>
<text text-anchor="start" x="8" y="-487.1" font-family="Times,serif" font-size="14.00"> &#160;&#160;s_keyHash: bytes32</text>
<text text-anchor="start" x="8" y="-470.3" font-family="Times,serif" font-size="14.00"> &#160;&#160;callbackGasLimit: uint32</text>
<text text-anchor="start" x="8" y="-453.5" font-family="Times,serif" font-size="14.00"> &#160;&#160;requestConfirmations: uint16</text>
<text text-anchor="start" x="8" y="-436.7" font-family="Times,serif" font-size="14.00"> &#160;&#160;numWords: uint32</text>
<text text-anchor="start" x="8" y="-419.9" font-family="Times,serif" font-size="14.00"> &#160;&#160;voteCheck: mapping(uint256=&gt;mapping(address=&gt;bool))</text>
<text text-anchor="start" x="8" y="-403.1" font-family="Times,serif" font-size="14.00"> &#160;&#160;whiteList: mapping(address=&gt;bool)</text>
<text text-anchor="start" x="8" y="-386.3" font-family="Times,serif" font-size="14.00"> &#160;&#160;requestIdToGameId: mapping(uint256=&gt;uint256)</text>
<polyline fill="none" stroke="black" points="0,-378.1 1358.62,-378.1 "/>
<text text-anchor="start" x="8" y="-361.5" font-family="Times,serif" font-size="14.00">Internal:</text>
<text text-anchor="start" x="8" y="-344.7" font-family="Times,serif" font-size="14.00"> &#160;&#160;&#160;fulfillRandomWords(requestId: uint256, randomWords: uint256[])</text>
<text text-anchor="start" x="8" y="-327.9" font-family="Times,serif" font-size="14.00">External:</text>
<text text-anchor="start" x="8" y="-311.1" font-family="Times,serif" font-size="14.00"> &#160;&#160;&#160;&lt;&lt;payable&gt;&gt; null()</text>
<text text-anchor="start" x="8" y="-294.3" font-family="Times,serif" font-size="14.00"> &#160;&#160;&#160;&lt;&lt;payable&gt;&gt; null()</text>
<text text-anchor="start" x="8" y="-277.5" font-family="Times,serif" font-size="14.00">Public:</text>
<text text-anchor="start" x="8" y="-260.7" font-family="Times,serif" font-size="14.00"> &#160;&#160;&#160;&lt;&lt;payable&gt;&gt; createGame(topic: string, _questionA: string, _questionB: string, _deadline: uint256) &lt;&lt;feeCheck, onlyWhitelist&gt;&gt;</text>
<text text-anchor="start" x="8" y="-243.9" font-family="Times,serif" font-size="14.00"> &#160;&#160;&#160;&lt;&lt;payable&gt;&gt; vote(_gameId: uint256, _voteOption: VoteOption) &lt;&lt;feeCheck, onlyWhitelist&gt;&gt;</text>
<text text-anchor="start" x="8" y="-227.1" font-family="Times,serif" font-size="14.00"> &#160;&#160;&#160;&lt;&lt;payable&gt;&gt; claimPool(_gameId: uint256) &lt;&lt;nonReentrant&gt;&gt;</text>
<text text-anchor="start" x="8" y="-210.3" font-family="Times,serif" font-size="14.00"> &#160;&#160;&#160;&lt;&lt;event&gt;&gt; NewGame(gameId: uint256, topic: string, questionA: string, questionB: string, createdAt: uint256, deadline: uint256, creator: address)</text>
<text text-anchor="start" x="8" y="-193.5" font-family="Times,serif" font-size="14.00"> &#160;&#160;&#160;&lt;&lt;event&gt;&gt; NewVote(gameId: uint256, votedAddress: address, voteOption: VoteOption, votedAt: uint256)</text>
<text text-anchor="start" x="8" y="-176.7" font-family="Times,serif" font-size="14.00"> &#160;&#160;&#160;&lt;&lt;event&gt;&gt; NewWinner(gameId: uint256, winners: address[3])</text>
<text text-anchor="start" x="8" y="-159.9" font-family="Times,serif" font-size="14.00"> &#160;&#160;&#160;&lt;&lt;event&gt;&gt; ClaimPool(gameId: uint256, claimAddress: address, amount: uint256, winnerRank: WinnerRank)</text>
<text text-anchor="start" x="8" y="-143.1" font-family="Times,serif" font-size="14.00"> &#160;&#160;&#160;&lt;&lt;event&gt;&gt; WhiteListUpdate(userAddress: address, status: bool)</text>
<text text-anchor="start" x="8" y="-126.3" font-family="Times,serif" font-size="14.00"> &#160;&#160;&#160;&lt;&lt;event&gt;&gt; RandomnessRequested(requestId: uint256, gameId: uint256)</text>
<text text-anchor="start" x="8" y="-109.5" font-family="Times,serif" font-size="14.00"> &#160;&#160;&#160;&lt;&lt;modifier&gt;&gt; onlyWhitelist()</text>
<text text-anchor="start" x="8" y="-92.7" font-family="Times,serif" font-size="14.00"> &#160;&#160;&#160;&lt;&lt;modifier&gt;&gt; feeCheck()</text>
<text text-anchor="start" x="8" y="-75.9" font-family="Times,serif" font-size="14.00"> &#160;&#160;&#160;constructor(_cost: uint256, _subscriptionId: uint256, _vrfCoordinator: address)</text>
<text text-anchor="start" x="8" y="-59.1" font-family="Times,serif" font-size="14.00"> &#160;&#160;&#160;getGameInfo(_gameId: uint256): (id: uint256, topic: string, questionA: string, questionB: string, voteCountA: uint256, voteCountB: uint256, totalpool: uint256, createAt: uint256, deadline: uint256, creator: address, creatorClaimed: bool)</text>
<text text-anchor="start" x="8" y="-42.3" font-family="Times,serif" font-size="14.00"> &#160;&#160;&#160;getGameWinner(_gameId: uint256): (winners: address[3], winnersClaimed: bool[3])</text>
<text text-anchor="start" x="8" y="-25.5" font-family="Times,serif" font-size="14.00"> &#160;&#160;&#160;whitelistUpdate(_newAddress: address, _status: bool) &lt;&lt;onlyOwner&gt;&gt;</text>
<text text-anchor="start" x="8" y="-8.7" font-family="Times,serif" font-size="14.00"> &#160;&#160;&#160;checkWinner(_gameId: uint256) &lt;&lt;onlyWhitelist&gt;&gt;</text>
</g>
<!-- 1 -->
<g id="node2" class="node">
<title>1</title>
<polygon fill="#f2f2f2" stroke="black" points="303.87,-800.7 303.87,-900.7 468.75,-900.7 468.75,-800.7 303.87,-800.7"/>
<text text-anchor="middle" x="386.31" y="-884.1" font-family="Times,serif" font-size="14.00">&lt;&lt;Enum&gt;&gt;</text>
<text text-anchor="middle" x="386.31" y="-867.3" font-family="Times,serif" font-size="14.00">VoteOption</text>
<text text-anchor="middle" x="386.31" y="-850.5" font-family="Times,serif" font-size="14.00">contractsBalanceGame.sol</text>
<polyline fill="none" stroke="black" points="303.87,-842.3 468.75,-842.3 "/>
<text text-anchor="start" x="311.87" y="-825.7" font-family="Times,serif" font-size="14.00">A: 0</text>
<text text-anchor="start" x="311.87" y="-808.9" font-family="Times,serif" font-size="14.00">B: 1</text>
</g>
<!-- 0&#45;&gt;1 -->
<g id="edge7" class="edge">
<title>0&#45;&gt;1</title>
<path fill="none" stroke="black" stroke-dasharray="5,2" d="M477.67,-679.99C453.44,-722.67 431.56,-761.76 415.27,-791.64"/>
<polygon fill="black" stroke="black" points="412.1,-790.15 410.4,-800.61 418.25,-793.49 412.1,-790.15"/>
</g>
<!-- 2 -->
<g id="node3" class="node">
<title>2</title>
<polygon fill="#f2f2f2" stroke="black" points="486.87,-783.9 486.87,-917.5 651.75,-917.5 651.75,-783.9 486.87,-783.9"/>
<text text-anchor="middle" x="569.31" y="-900.9" font-family="Times,serif" font-size="14.00">&lt;&lt;Enum&gt;&gt;</text>
<text text-anchor="middle" x="569.31" y="-884.1" font-family="Times,serif" font-size="14.00">WinnerRank</text>
<text text-anchor="middle" x="569.31" y="-867.3" font-family="Times,serif" font-size="14.00">contractsBalanceGame.sol</text>
<polyline fill="none" stroke="black" points="486.87,-859.1 651.75,-859.1 "/>
<text text-anchor="start" x="494.87" y="-842.5" font-family="Times,serif" font-size="14.00">Creator: 0</text>
<text text-anchor="start" x="494.87" y="-825.7" font-family="Times,serif" font-size="14.00">Rank1: 1</text>
<text text-anchor="start" x="494.87" y="-808.9" font-family="Times,serif" font-size="14.00">Rank2: 2</text>
<text text-anchor="start" x="494.87" y="-792.1" font-family="Times,serif" font-size="14.00">Rank3: 3</text>
</g>
<!-- 0&#45;&gt;2 -->
<g id="edge8" class="edge">
<title>0&#45;&gt;2</title>
<path fill="none" stroke="black" stroke-dasharray="5,2" d="M599.61,-679.99C592.41,-714.63 585.9,-746.9 580.75,-773.81"/>
<polygon fill="black" stroke="black" points="577.27,-773.37 578.84,-783.85 584.14,-774.68 577.27,-773.37"/>
</g>
<!-- 5 -->
<g id="node6" class="node">
<title>5</title>
<polygon fill="#f2f2f2" stroke="black" points="706.87,-716.7 706.87,-984.7 871.75,-984.7 871.75,-716.7 706.87,-716.7"/>
<text text-anchor="middle" x="789.31" y="-968.1" font-family="Times,serif" font-size="14.00">&lt;&lt;Struct&gt;&gt;</text>
<text text-anchor="middle" x="789.31" y="-951.3" font-family="Times,serif" font-size="14.00">Game</text>
<text text-anchor="middle" x="789.31" y="-934.5" font-family="Times,serif" font-size="14.00">contractsBalanceGame.sol</text>
<polyline fill="none" stroke="black" points="706.87,-926.3 871.75,-926.3 "/>
<text text-anchor="start" x="714.87" y="-909.7" font-family="Times,serif" font-size="14.00">id: uint256</text>
<text text-anchor="start" x="714.87" y="-892.9" font-family="Times,serif" font-size="14.00">topic: string</text>
<text text-anchor="start" x="714.87" y="-876.1" font-family="Times,serif" font-size="14.00">questionA: string</text>
<text text-anchor="start" x="714.87" y="-859.3" font-family="Times,serif" font-size="14.00">questionB: string</text>
<text text-anchor="start" x="714.87" y="-842.5" font-family="Times,serif" font-size="14.00">voteCountA: uint256</text>
<text text-anchor="start" x="714.87" y="-825.7" font-family="Times,serif" font-size="14.00">voteCountB: uint256</text>
<text text-anchor="start" x="714.87" y="-808.9" font-family="Times,serif" font-size="14.00">votedList: address[]</text>
<text text-anchor="start" x="714.87" y="-792.1" font-family="Times,serif" font-size="14.00">totalpool: uint256</text>
<text text-anchor="start" x="714.87" y="-775.3" font-family="Times,serif" font-size="14.00">createAt: uint256</text>
<text text-anchor="start" x="714.87" y="-758.5" font-family="Times,serif" font-size="14.00">deadline: uint256</text>
<text text-anchor="start" x="714.87" y="-741.7" font-family="Times,serif" font-size="14.00">creator: Creator</text>
<text text-anchor="start" x="714.87" y="-724.9" font-family="Times,serif" font-size="14.00">winners: Winner</text>
</g>
<!-- 0&#45;&gt;5 -->
<g id="edge6" class="edge">
<title>0&#45;&gt;5</title>
<path fill="none" stroke="black" d="M746.2,-679.99C748.25,-689.14 750.29,-698.13 752.29,-706.89"/>
<polygon fill="black" stroke="black" points="748.89,-707.72 754.53,-716.69 755.71,-706.16 748.89,-707.72"/>
</g>
<!-- 1&#45;&gt;0 -->
<g id="edge1" class="edge">
<title>1&#45;&gt;0</title>
<path fill="none" stroke="black" d="M418.78,-800.61C436.21,-772.09 459.23,-733.36 484.39,-690.4"/>
<polygon fill="black" stroke="black" points="484.42,-690.35 484,-683.15 490.48,-679.99 490.91,-687.19 484.42,-690.35"/>
</g>
<!-- 2&#45;&gt;0 -->
<g id="edge2" class="edge">
<title>2&#45;&gt;0</title>
<path fill="none" stroke="black" d="M588.27,-783.85C594.57,-758.03 601.96,-726.3 609.76,-691.79"/>
<polygon fill="black" stroke="black" points="609.78,-691.7 607.2,-684.96 612.42,-679.99 615,-686.72 609.78,-691.7"/>
</g>
<!-- 3 -->
<g id="node4" class="node">
<title>3</title>
<polygon fill="#f2f2f2" stroke="black" points="596.87,-1021.7 596.87,-1121.7 761.75,-1121.7 761.75,-1021.7 596.87,-1021.7"/>
<text text-anchor="middle" x="679.31" y="-1105.1" font-family="Times,serif" font-size="14.00">&lt;&lt;Struct&gt;&gt;</text>
<text text-anchor="middle" x="679.31" y="-1088.3" font-family="Times,serif" font-size="14.00">Winner</text>
<text text-anchor="middle" x="679.31" y="-1071.5" font-family="Times,serif" font-size="14.00">contractsBalanceGame.sol</text>
<polyline fill="none" stroke="black" points="596.87,-1063.3 761.75,-1063.3 "/>
<text text-anchor="start" x="604.87" y="-1046.7" font-family="Times,serif" font-size="14.00">ranks: address[3]</text>
<text text-anchor="start" x="604.87" y="-1029.9" font-family="Times,serif" font-size="14.00">claimed: bool[3]</text>
</g>
<!-- 3&#45;&gt;0 -->
<g id="edge3" class="edge">
<title>3&#45;&gt;0</title>
<path fill="none" stroke="black" d="M679.31,-1021.46C679.31,-952.47 679.31,-820.97 679.31,-691.82"/>
<polygon fill="black" stroke="black" points="679.31,-691.74 675.31,-685.74 679.31,-679.74 683.31,-685.74 679.31,-691.74"/>
</g>
<!-- 4 -->
<g id="node5" class="node">
<title>4</title>
<polygon fill="#f2f2f2" stroke="black" points="816.87,-1021.7 816.87,-1121.7 981.75,-1121.7 981.75,-1021.7 816.87,-1021.7"/>
<text text-anchor="middle" x="899.31" y="-1105.1" font-family="Times,serif" font-size="14.00">&lt;&lt;Struct&gt;&gt;</text>
<text text-anchor="middle" x="899.31" y="-1088.3" font-family="Times,serif" font-size="14.00">Creator</text>
<text text-anchor="middle" x="899.31" y="-1071.5" font-family="Times,serif" font-size="14.00">contractsBalanceGame.sol</text>
<polyline fill="none" stroke="black" points="816.87,-1063.3 981.75,-1063.3 "/>
<text text-anchor="start" x="824.87" y="-1046.7" font-family="Times,serif" font-size="14.00">creator: address</text>
<text text-anchor="start" x="824.87" y="-1029.9" font-family="Times,serif" font-size="14.00">claimed: bool</text>
</g>
<!-- 4&#45;&gt;0 -->
<g id="edge4" class="edge">
<title>4&#45;&gt;0</title>
<path fill="none" stroke="black" d="M903.32,-1021.45C907.5,-951.97 909.86,-821.85 880.31,-716.2 878.01,-707.98 875.51,-699.74 872.83,-691.49"/>
<polygon fill="black" stroke="black" points="872.73,-691.21 867.04,-686.79 868.92,-679.83 874.62,-684.25 872.73,-691.21"/>
</g>
<!-- 5&#45;&gt;0 -->
<g id="edge5" class="edge">
<title>5&#45;&gt;0</title>
<path fill="none" stroke="black" d="M766.56,-716.69C764.92,-708.65 763.23,-700.41 761.5,-691.99"/>
<polygon fill="black" stroke="black" points="761.45,-691.74 756.31,-686.68 759.01,-679.99 764.15,-685.05 761.45,-691.74"/>
</g>
<!-- 5&#45;&gt;3 -->
<g id="edge10" class="edge">
<title>5&#45;&gt;3</title>
<path fill="none" stroke="black" stroke-dasharray="5,2" d="M722.47,-984.77C717.71,-994.25 713.08,-1003.47 708.72,-1012.15"/>
<polygon fill="black" stroke="black" points="705.47,-1010.82 704.11,-1021.33 711.72,-1013.97 705.47,-1010.82"/>
</g>
<!-- 5&#45;&gt;4 -->
<g id="edge9" class="edge">
<title>5&#45;&gt;4</title>
<path fill="none" stroke="black" stroke-dasharray="5,2" d="M856.15,-984.77C860.91,-994.25 865.54,-1003.47 869.9,-1012.15"/>
<polygon fill="black" stroke="black" points="866.9,-1013.97 874.51,-1021.33 873.15,-1010.82 866.9,-1013.97"/>
</g>
</g>
</svg>
