<?xml version="1.0" encoding="UTF-8" standalone="no"?>
<!DOCTYPE svg PUBLIC "-//W3C//DTD SVG 1.1//EN"
 "http://www.w3.org/Graphics/SVG/1.1/DTD/svg11.dtd">
<!-- Generated by graphviz version 5.0.0 (20220707.1540)
 -->
<!-- Title: UmlClassDiagram Pages: 1 -->
<svg width="1292pt" height="1130pt"
 viewBox="0.00 0.00 1292.35 1130.20" xmlns="http://www.w3.org/2000/svg" xmlns:xlink="http://www.w3.org/1999/xlink">
<g id="graph0" class="graph" transform="scale(1 1) rotate(0) translate(4 1126.2)">
<title>UmlClassDiagram</title>
<polygon fill="white" stroke="transparent" points="-4,4 -4,-1126.2 1288.35,-1126.2 1288.35,4 -4,4"/>
<!-- 0 -->
<g id="node1" class="node">
<title>0</title>
<polygon fill="#f2f2f2" stroke="black" points="0,-0.5 0,-696.5 1284.35,-696.5 1284.35,-0.5 0,-0.5"/>
<text text-anchor="middle" x="642.17" y="-679.9" font-family="Times,serif" font-size="14.00">BalanceGame</text>
<text text-anchor="middle" x="642.17" y="-663.1" font-family="Times,serif" font-size="14.00">contractsBalanceGame.sol</text>
<polyline fill="none" stroke="black" points="0,-654.9 1284.35,-654.9 "/>
<text text-anchor="start" x="8" y="-638.3" font-family="Times,serif" font-size="14.00">Private:</text>
<text text-anchor="start" x="8" y="-621.5" font-family="Times,serif" font-size="14.00"> &#160;&#160;findGameById: mapping(uint256=&gt;Game)</text>
<text text-anchor="start" x="8" y="-604.7" font-family="Times,serif" font-size="14.00"> &#160;&#160;vrfRequested: mapping(uint256=&gt;bool)</text>
<text text-anchor="start" x="8" y="-587.9" font-family="Times,serif" font-size="14.00">Public:</text>
<text text-anchor="start" x="8" y="-571.1" font-family="Times,serif" font-size="14.00"> &#160;&#160;COST: uint256</text>
<text text-anchor="start" x="8" y="-554.3" font-family="Times,serif" font-size="14.00"> &#160;&#160;gameIndex: uint256</text>
<text text-anchor="start" x="8" y="-537.5" font-family="Times,serif" font-size="14.00"> &#160;&#160;s_subscriptionId: uint256</text>
<text text-anchor="start" x="8" y="-520.7" font-family="Times,serif" font-size="14.00"> &#160;&#160;vrfCoordinator: address</text>
<text text-anchor="start" x="8" y="-503.9" font-family="Times,serif" font-size="14.00"> &#160;&#160;s_keyHash: bytes32</text>
<text text-anchor="start" x="8" y="-487.1" font-family="Times,serif" font-size="14.00"> &#160;&#160;callbackGasLimit: uint32</text>
<text text-anchor="start" x="8" y="-470.3" font-family="Times,serif" font-size="14.00"> &#160;&#160;requestConfirmations: uint16</text>
<text text-anchor="start" x="8" y="-453.5" font-family="Times,serif" font-size="14.00"> &#160;&#160;numWords: uint32</text>
<text text-anchor="start" x="8" y="-436.7" font-family="Times,serif" font-size="14.00"> &#160;&#160;voteCheck: mapping(uint256=&gt;mapping(address=&gt;bool))</text>
<text text-anchor="start" x="8" y="-419.9" font-family="Times,serif" font-size="14.00"> &#160;&#160;isContinue: mapping(address=&gt;bool)</text>
<text text-anchor="start" x="8" y="-403.1" font-family="Times,serif" font-size="14.00"> &#160;&#160;whiteList: mapping(address=&gt;bool)</text>
<text text-anchor="start" x="8" y="-386.3" font-family="Times,serif" font-size="14.00"> &#160;&#160;requestIdToGameId: mapping(uint256=&gt;uint256)</text>
<polyline fill="none" stroke="black" points="0,-378.1 1284.35,-378.1 "/>
<text text-anchor="start" x="8" y="-361.5" font-family="Times,serif" font-size="14.00">Internal:</text>
<text text-anchor="start" x="8" y="-344.7" font-family="Times,serif" font-size="14.00"> &#160;&#160;&#160;fulfillRandomWords(requestId: uint256, randomWords: uint256[])</text>
<text text-anchor="start" x="8" y="-327.9" font-family="Times,serif" font-size="14.00">External:</text>
<text text-anchor="start" x="8" y="-311.1" font-family="Times,serif" font-size="14.00"> &#160;&#160;&#160;&lt;&lt;payable&gt;&gt; null()</text>
<text text-anchor="start" x="8" y="-294.3" font-family="Times,serif" font-size="14.00"> &#160;&#160;&#160;&lt;&lt;payable&gt;&gt; null()</text>
<text text-anchor="start" x="8" y="-277.5" font-family="Times,serif" font-size="14.00">Public:</text>
<text text-anchor="start" x="8" y="-260.7" font-family="Times,serif" font-size="14.00"> &#160;&#160;&#160;&lt;&lt;payable&gt;&gt; createGame(_questionA: string, _questionB: string, _deadline: uint256) &lt;&lt;feeCheck, onlyWhitelist&gt;&gt;</text>
<text text-anchor="start" x="8" y="-243.9" font-family="Times,serif" font-size="14.00"> &#160;&#160;&#160;&lt;&lt;payable&gt;&gt; vote(_gameId: uint256, _voteOption: VoteOption) &lt;&lt;feeCheck, onlyWhitelist&gt;&gt;</text>
<text text-anchor="start" x="8" y="-227.1" font-family="Times,serif" font-size="14.00"> &#160;&#160;&#160;&lt;&lt;payable&gt;&gt; claimPool(_gameId: uint256) &lt;&lt;nonReentrant&gt;&gt;</text>
<text text-anchor="start" x="8" y="-210.3" font-family="Times,serif" font-size="14.00"> &#160;&#160;&#160;&lt;&lt;event&gt;&gt; NewGame(gameId: uint256, questionA: string, questionB: string, createdAt: uint256, deadline: uint256, creator: address)</text>
<text text-anchor="start" x="8" y="-193.5" font-family="Times,serif" font-size="14.00"> &#160;&#160;&#160;&lt;&lt;event&gt;&gt; NewVote(gameId: uint256, votedAddress: address, voteOption: VoteOption, votedAt: uint256)</text>
<text text-anchor="start" x="8" y="-176.7" font-family="Times,serif" font-size="14.00"> &#160;&#160;&#160;&lt;&lt;event&gt;&gt; NewWinner(gameId: uint256, winners: address[3])</text>
<text text-anchor="start" x="8" y="-159.9" font-family="Times,serif" font-size="14.00"> &#160;&#160;&#160;&lt;&lt;event&gt;&gt; ClaimPool(gameId: uint256, claimAddress: address, amount: uint256, winnerRank: WinnerRank)</text>
<text text-anchor="start" x="8" y="-143.1" font-family="Times,serif" font-size="14.00"> &#160;&#160;&#160;&lt;&lt;event&gt;&gt; WhiteListUpdate(userAddress: address, status: bool)</text>
<text text-anchor="start" x="8" y="-126.3" font-family="Times,serif" font-size="14.00"> &#160;&#160;&#160;&lt;&lt;event&gt;&gt; RandomnessRequested(requestId: uint256, gameId: uint256)</text>
<text text-anchor="start" x="8" y="-109.5" font-family="Times,serif" font-size="14.00"> &#160;&#160;&#160;&lt;&lt;modifier&gt;&gt; onlyWhitelist()</text>
<text text-anchor="start" x="8" y="-92.7" font-family="Times,serif" font-size="14.00"> &#160;&#160;&#160;&lt;&lt;modifier&gt;&gt; feeCheck()</text>
<text text-anchor="start" x="8" y="-75.9" font-family="Times,serif" font-size="14.00"> &#160;&#160;&#160;constructor(_cost: uint256, _subscriptionId: uint256)</text>
<text text-anchor="start" x="8" y="-59.1" font-family="Times,serif" font-size="14.00"> &#160;&#160;&#160;getGameInfo(_gameId: uint256): (id: uint256, questionA: string, questionB: string, voteCountA: uint256, voteCountB: uint256, totalpool: uint256, createAt: uint256, deadline: uint256, creator: address, creatorClaimed: bool)</text>
<text text-anchor="start" x="8" y="-42.3" font-family="Times,serif" font-size="14.00"> &#160;&#160;&#160;getGameWinner(_gameId: uint256): (winners: address[3], winnersClaimed: bool[3])</text>
<text text-anchor="start" x="8" y="-25.5" font-family="Times,serif" font-size="14.00"> &#160;&#160;&#160;whitelistUpdate(_newAddress: address, _status: bool) &lt;&lt;onlyOwner&gt;&gt;</text>
<text text-anchor="start" x="8" y="-8.7" font-family="Times,serif" font-size="14.00"> &#160;&#160;&#160;checkWinner(_gameId: uint256) &lt;&lt;onlyWhitelist&gt;&gt;</text>
</g>
<!-- 1 -->
<g id="node2" class="node">
<title>1</title>
<polygon fill="#f2f2f2" stroke="black" points="266.73,-809.1 266.73,-909.1 431.61,-909.1 431.61,-809.1 266.73,-809.1"/>
<text text-anchor="middle" x="349.17" y="-892.5" font-family="Times,serif" font-size="14.00">&lt;&lt;Enum&gt;&gt;</text>
<text text-anchor="middle" x="349.17" y="-875.7" font-family="Times,serif" font-size="14.00">VoteOption</text>
<text text-anchor="middle" x="349.17" y="-858.9" font-family="Times,serif" font-size="14.00">contractsBalanceGame.sol</text>
<polyline fill="none" stroke="black" points="266.73,-850.7 431.61,-850.7 "/>
<text text-anchor="start" x="274.73" y="-834.1" font-family="Times,serif" font-size="14.00">A: 0</text>
<text text-anchor="start" x="274.73" y="-817.3" font-family="Times,serif" font-size="14.00">B: 1</text>
</g>
<!-- 0&#45;&gt;1 -->
<g id="edge7" class="edge">
<title>0&#45;&gt;1</title>
<path fill="none" stroke="black" stroke-dasharray="5,2" d="M435.75,-696.83C413.48,-736.12 393.44,-771.97 378.24,-799.84"/>
<polygon fill="black" stroke="black" points="374.98,-798.53 373.28,-808.98 381.13,-801.87 374.98,-798.53"/>
</g>
<!-- 2 -->
<g id="node3" class="node">
<title>2</title>
<polygon fill="#f2f2f2" stroke="black" points="449.73,-792.3 449.73,-925.9 614.61,-925.9 614.61,-792.3 449.73,-792.3"/>
<text text-anchor="middle" x="532.17" y="-909.3" font-family="Times,serif" font-size="14.00">&lt;&lt;Enum&gt;&gt;</text>
<text text-anchor="middle" x="532.17" y="-892.5" font-family="Times,serif" font-size="14.00">WinnerRank</text>
<text text-anchor="middle" x="532.17" y="-875.7" font-family="Times,serif" font-size="14.00">contractsBalanceGame.sol</text>
<polyline fill="none" stroke="black" points="449.73,-867.5 614.61,-867.5 "/>
<text text-anchor="start" x="457.73" y="-850.9" font-family="Times,serif" font-size="14.00">Creator: 0</text>
<text text-anchor="start" x="457.73" y="-834.1" font-family="Times,serif" font-size="14.00">Rank1: 1</text>
<text text-anchor="start" x="457.73" y="-817.3" font-family="Times,serif" font-size="14.00">Rank2: 2</text>
<text text-anchor="start" x="457.73" y="-800.5" font-family="Times,serif" font-size="14.00">Rank3: 3</text>
</g>
<!-- 0&#45;&gt;2 -->
<g id="edge8" class="edge">
<title>0&#45;&gt;2</title>
<path fill="none" stroke="black" stroke-dasharray="5,2" d="M560.72,-696.83C554.23,-728.19 548.37,-757.37 543.64,-782.04"/>
<polygon fill="black" stroke="black" points="540.18,-781.5 541.75,-791.97 547.06,-782.8 540.18,-781.5"/>
</g>
<!-- 5 -->
<g id="node6" class="node">
<title>5</title>
<polygon fill="#f2f2f2" stroke="black" points="669.73,-733.5 669.73,-984.7 834.61,-984.7 834.61,-733.5 669.73,-733.5"/>
<text text-anchor="middle" x="752.17" y="-968.1" font-family="Times,serif" font-size="14.00">&lt;&lt;Struct&gt;&gt;</text>
<text text-anchor="middle" x="752.17" y="-951.3" font-family="Times,serif" font-size="14.00">Game</text>
<text text-anchor="middle" x="752.17" y="-934.5" font-family="Times,serif" font-size="14.00">contractsBalanceGame.sol</text>
<polyline fill="none" stroke="black" points="669.73,-926.3 834.61,-926.3 "/>
<text text-anchor="start" x="677.73" y="-909.7" font-family="Times,serif" font-size="14.00">id: uint256</text>
<text text-anchor="start" x="677.73" y="-892.9" font-family="Times,serif" font-size="14.00">questionA: string</text>
<text text-anchor="start" x="677.73" y="-876.1" font-family="Times,serif" font-size="14.00">questionB: string</text>
<text text-anchor="start" x="677.73" y="-859.3" font-family="Times,serif" font-size="14.00">voteCountA: uint256</text>
<text text-anchor="start" x="677.73" y="-842.5" font-family="Times,serif" font-size="14.00">voteCountB: uint256</text>
<text text-anchor="start" x="677.73" y="-825.7" font-family="Times,serif" font-size="14.00">votedList: address[]</text>
<text text-anchor="start" x="677.73" y="-808.9" font-family="Times,serif" font-size="14.00">totalpool: uint256</text>
<text text-anchor="start" x="677.73" y="-792.1" font-family="Times,serif" font-size="14.00">createAt: uint256</text>
<text text-anchor="start" x="677.73" y="-775.3" font-family="Times,serif" font-size="14.00">deadline: uint256</text>
<text text-anchor="start" x="677.73" y="-758.5" font-family="Times,serif" font-size="14.00">creator: Creator</text>
<text text-anchor="start" x="677.73" y="-741.7" font-family="Times,serif" font-size="14.00">winners: Winner</text>
</g>
<!-- 0&#45;&gt;5 -->
<g id="edge6" class="edge">
<title>0&#45;&gt;5</title>
<path fill="none" stroke="black" d="M710.96,-696.83C713,-705.88 715.02,-714.75 717,-723.38"/>
<polygon fill="black" stroke="black" points="713.65,-724.44 719.3,-733.4 720.47,-722.87 713.65,-724.44"/>
</g>
<!-- 1&#45;&gt;0 -->
<g id="edge1" class="edge">
<title>1&#45;&gt;0</title>
<path fill="none" stroke="black" d="M381.66,-808.98C397.94,-782.35 419.09,-746.81 442.31,-707.25"/>
<polygon fill="black" stroke="black" points="442.34,-707.18 441.93,-699.98 448.41,-696.83 448.83,-704.03 442.34,-707.18"/>
</g>
<!-- 2&#45;&gt;0 -->
<g id="edge2" class="edge">
<title>2&#45;&gt;0</title>
<path fill="none" stroke="black" d="M551.2,-791.97C556.95,-768.38 563.61,-739.88 570.66,-708.84"/>
<polygon fill="black" stroke="black" points="570.74,-708.53 568.16,-701.8 573.38,-696.83 575.96,-703.56 570.74,-708.53"/>
</g>
<!-- 3 -->
<g id="node4" class="node">
<title>3</title>
<polygon fill="#f2f2f2" stroke="black" points="559.73,-1021.7 559.73,-1121.7 724.61,-1121.7 724.61,-1021.7 559.73,-1021.7"/>
<text text-anchor="middle" x="642.17" y="-1105.1" font-family="Times,serif" font-size="14.00">&lt;&lt;Struct&gt;&gt;</text>
<text text-anchor="middle" x="642.17" y="-1088.3" font-family="Times,serif" font-size="14.00">Winner</text>
<text text-anchor="middle" x="642.17" y="-1071.5" font-family="Times,serif" font-size="14.00">contractsBalanceGame.sol</text>
<polyline fill="none" stroke="black" points="559.73,-1063.3 724.61,-1063.3 "/>
<text text-anchor="start" x="567.73" y="-1046.7" font-family="Times,serif" font-size="14.00">ranks: address[3]</text>
<text text-anchor="start" x="567.73" y="-1029.9" font-family="Times,serif" font-size="14.00">claimed: bool[3]</text>
</g>
<!-- 3&#45;&gt;0 -->
<g id="edge3" class="edge">
<title>3&#45;&gt;0</title>
<path fill="none" stroke="black" d="M642.17,-1021.43C642.17,-955.36 642.17,-832.05 642.17,-708.93"/>
<polygon fill="black" stroke="black" points="642.17,-708.63 638.17,-702.63 642.17,-696.63 646.17,-702.63 642.17,-708.63"/>
</g>
<!-- 4 -->
<g id="node5" class="node">
<title>4</title>
<polygon fill="#f2f2f2" stroke="black" points="779.73,-1021.7 779.73,-1121.7 944.61,-1121.7 944.61,-1021.7 779.73,-1021.7"/>
<text text-anchor="middle" x="862.17" y="-1105.1" font-family="Times,serif" font-size="14.00">&lt;&lt;Struct&gt;&gt;</text>
<text text-anchor="middle" x="862.17" y="-1088.3" font-family="Times,serif" font-size="14.00">Creator</text>
<text text-anchor="middle" x="862.17" y="-1071.5" font-family="Times,serif" font-size="14.00">contractsBalanceGame.sol</text>
<polyline fill="none" stroke="black" points="779.73,-1063.3 944.61,-1063.3 "/>
<text text-anchor="start" x="787.73" y="-1046.7" font-family="Times,serif" font-size="14.00">creator: address</text>
<text text-anchor="start" x="787.73" y="-1029.9" font-family="Times,serif" font-size="14.00">claimed: bool</text>
</g>
<!-- 4&#45;&gt;0 -->
<g id="edge4" class="edge">
<title>4&#45;&gt;0</title>
<path fill="none" stroke="black" d="M865.83,-1021.56C869.35,-954.88 870.69,-832.62 843.17,-733 840.91,-724.81 838.46,-716.6 835.83,-708.38"/>
<polygon fill="black" stroke="black" points="835.76,-708.16 830.09,-703.71 832.01,-696.76 837.69,-701.21 835.76,-708.16"/>
</g>
<!-- 5&#45;&gt;0 -->
<g id="edge5" class="edge">
<title>5&#45;&gt;0</title>
<path fill="none" stroke="black" d="M731.1,-733.4C729.49,-725.42 727.82,-717.21 726.1,-708.82"/>
<polygon fill="black" stroke="black" points="726.05,-708.58 720.92,-703.51 723.62,-696.83 728.75,-701.9 726.05,-708.58"/>
</g>
<!-- 5&#45;&gt;3 -->
<g id="edge10" class="edge">
<title>5&#45;&gt;3</title>
<path fill="none" stroke="black" stroke-dasharray="5,2" d="M687.07,-984.74C682.05,-994.36 677.14,-1003.76 672.52,-1012.6"/>
<polygon fill="black" stroke="black" points="669.35,-1011.11 667.82,-1021.6 675.55,-1014.36 669.35,-1011.11"/>
</g>
<!-- 5&#45;&gt;4 -->
<g id="edge9" class="edge">
<title>5&#45;&gt;4</title>
<path fill="none" stroke="black" stroke-dasharray="5,2" d="M817.27,-984.74C822.3,-994.36 827.21,-1003.76 831.83,-1012.6"/>
<polygon fill="black" stroke="black" points="828.79,-1014.36 836.53,-1021.6 835,-1011.11 828.79,-1014.36"/>
</g>
</g>
</svg>
